<svg xmlns="http://www.w3.org/2000/svg" width="40.014" height="25.307" viewBox="0 0 31.055 27.307">
  <path id="Trazado_8677" data-name="Trazado 8677" d="M525.273,416.356V395.794a1.168,1.168,0,0,1,1.222-.676c2.526.02,5.053.009,7.579.009h.358c0-.331-.007-.614,0-.9a2.7,2.7,0,0,1,2.708-2.732c2.435-.032,4.871-.028,7.306,0a2.665,2.665,0,0,1,2.689,2.452,10.177,10.177,0,0,1,.007,1.178h.432q3.85,0,7.7,0a.915.915,0,0,1,1.05,1.035q0,9.9-.01,19.8a3.057,3.057,0,0,1-.274,1.255,2.664,2.664,0,0,1-2.617,1.567H536.9q-4.366,0-8.731,0a2.646,2.646,0,0,1-2.351-1.134,7.087,7.087,0,0,1-.547-1.293m29.235-14.53-.052-.006c-.026.074-.054.147-.078.221q-.633,1.895-1.266,3.789a2.753,2.753,0,0,1-2.82,2.034q-2.3,0-4.609,0h-.334c0,.316,0,.588,0,.86a.905.905,0,0,1-.95.957q-3.593.008-7.186,0a.91.91,0,0,1-.96-.978c0-.27,0-.54,0-.84h-4.932a2.754,2.754,0,0,1-2.836-2.054q-.527-1.579-1.054-3.158c-.094-.281-.191-.561-.287-.842l-.05.012v.3q0,6.852,0,13.7c0,.815.323,1.14,1.135,1.14h25.135c.83,0,1.145-.32,1.145-1.16q0-6.837,0-13.674Zm-18.256,4.218c0-.3,0-.57,0-.84a.91.91,0,0,1,.962-.976q3.593-.007,7.185,0a.9.9,0,0,1,.949.958c.005.279,0,.559,0,.859h4.883a1.011,1.011,0,0,0,1.176-.852l2.64-7.926c.033-.1.062-.2.093-.3H527.454l.486,1.459q1.133,3.4,2.267,6.806c.188.564.457.8.963.807,1.677.009,3.355,0,5.082,0m0-10.942h9.1c0-.295.008-.585,0-.875a.908.908,0,0,0-.928-.917c-.222-.007-.444,0-.666,0q-3.241,0-6.483,0a.922.922,0,0,0-1.018,1.011c0,.252,0,.5,0,.782m7.264,10.96h-5.424v1.78h5.424Z" transform="translate(-525.273 -391.476)" fill="#fff"/>
</svg>
