<svg id="Grupo_3933" data-name="Grupo 3933" xmlns="http://www.w3.org/2000/svg" xmlns:xlink="http://www.w3.org/1999/xlink" width="121" height="102.925" viewBox="0 0 121 102.925">
  <defs>
    <clipPath id="clip-path">
      <rect id="Rectángulo_1166" data-name="Rectángulo 1166" width="121" height="102.925" fill="none"/>
    </clipPath>
  </defs>
  <g id="Grupo_3932" data-name="Grupo 3932" clip-path="url(#clip-path)">
    <path id="Trazado_8593" data-name="Trazado 8593" d="M94.553,54.515a1.535,1.535,0,0,1-1.081.743c-.006,0-.013,0-.02,0h30.673c-.471-.126-.676-.447-.867-.972q-3.877-10.579-7.8-21.137c-.934-2.527-1.872-5.051-2.834-7.643a16.227,16.227,0,0,0,7.442-3.9c1.807-1.695,1.988-4.011.446-5.661a3.886,3.886,0,0,0-5.593-.007c-3.632,3.189-8.14,2.953-11.445-.6a22.679,22.679,0,0,0-30.9-2.507c-.286.225-.583.433-1.027.757,0-3.356.014-6.466-.006-9.576a3.812,3.812,0,1,0-7.612.027c-.017,2.8,0,5.593-.006,8.389,0,.327-.048.655-.082,1.112-.566-.433-1-.767-1.432-1.095a22.765,22.765,0,0,0-30.189,2.657c-3.618,3.874-7.806,4.106-11.864.655a3.823,3.823,0,1,0-5.177,5.627,15.093,15.093,0,0,0,6.012,3.625c.539.171,1.074.358,1.64.549-3.6,9.73-7.148,19.357-10.746,28.967a1.535,1.535,0,0,1-1.092.73H41.747c-.566-.16-.8-.542-1.027-1.166q-4.287-11.684-8.635-23.344c-.665-1.79-1.313-3.588-1.991-5.446a16.616,16.616,0,0,0,7.653-4.88A15.087,15.087,0,0,1,63.9,30.558c.048,17.686.013,35.372.034,53.062a1.089,1.089,0,0,1-.9,1.231,14.889,14.889,0,0,0-9.194,8.591c-.242.57-.426,1.163-.651,1.784-1.357,0-2.653-.007-3.953,0-2.5.017-4.209,1.548-4.232,3.782-.027,2.322,1.643,3.9,4.228,3.908q18.493.02,36.989,0c2.571,0,4.266-1.6,4.242-3.9-.021-2.241-1.722-3.772-4.225-3.792-1.333-.007-2.667,0-3.966,0A15.291,15.291,0,0,0,72.116,84.707c-.28-.1-.546-.709-.546-1.084q-.04-26.529,0-53.058a14.452,14.452,0,0,1,5.815-11.755,14.927,14.927,0,0,1,20.247,1.528,16.976,16.976,0,0,0,7.4,4.867.979.979,0,0,1,.252.184,1.107,1.107,0,0,1-.027.263Q99.926,40.091,94.553,54.515M35.68,55.16H17.325c3.045-8.236,6.067-16.39,9.177-24.793,3.1,8.383,6.114,16.516,9.177,24.793M73.9,95.143H61.581a7.295,7.295,0,0,1,12.315,0m35.072-64.776c3.11,8.4,6.125,16.547,9.187,24.814H99.78c3.063-8.27,6.074-16.4,9.188-24.814" transform="translate(-7.243 0)" fill="#00c1d4"/>
    <path id="Trazado_8594" data-name="Trazado 8594" d="M38.52,165.981a3.713,3.713,0,0,0-3.53-3.857,2.331,2.331,0,0,1-.487-.082H3.749A3.859,3.859,0,0,0,0,166.22a22.974,22.974,0,0,0,.365,4.222c2.091,10.173,11.039,16.411,21.72,15.2,9.484-1.074,16.683-9.685,16.434-19.661M18.215,178.108c-4.7-.228-9.515-4.2-10.006-8.3H30.366c-1.166,5.208-6.186,8.591-12.151,8.3" transform="translate(0 -106.78)" fill="#ffb81c"/>
    <path id="Trazado_8595" data-name="Trazado 8595" d="M276.6,162.1a1.926,1.926,0,0,1-.43-.058H245.5a3.908,3.908,0,0,0-3.741,3.693,19.291,19.291,0,0,0,37.834,6.1c.266-.979.467-1.975.7-2.964v-3.782a4,4,0,0,0-3.69-2.987m-14.255,15.995c-6.108.413-11.554-3.2-12.41-8.28H272.01c-.13,3.71-5.119,7.973-9.661,8.28" transform="translate(-159.294 -106.78)" fill="#ffb81c"/>
  </g>
</svg>
