<svg xmlns="http://www.w3.org/2000/svg" width="40.014" height="25.781" viewBox="0 0 40.014 25.781">
  <g id="Grupo_4011" data-name="Grupo 4011" transform="translate(-210.866 -2742.576)">
    <path id="Trazado_8644" data-name="Trazado 8644" d="M457.313,54.285a.771.771,0,0,1-.719.346q-14.1-.008-28.209-.005c-.582,0-.719-.146-.72-.74q0-3.856,0-7.711v-.52h-3.131a2.894,2.894,0,0,1-2.086-.852c-.424-.413-.829-.844-1.257-1.252a2.064,2.064,0,0,0-1.674-.693,9.257,9.257,0,0,1-1.08,0c-.395-.007-.632-.206-.638-.52s.232-.539.618-.539a16.477,16.477,0,0,1,1.771.045,2.984,2.984,0,0,1,2.047,1.233,8.082,8.082,0,0,0,1.188,1.151,1.31,1.31,0,0,0,.728.317c1.154.033,2.309.015,3.488.015v-3.95c-.3-.013-.594-.023-.886-.04a4.163,4.163,0,0,1-3.941-4.081c-.021-.425.17-.678.492-.693s.53.215.558.647a3.124,3.124,0,0,0,2.468,3.006,11.64,11.64,0,0,0,2.23.082,1.509,1.509,0,0,1,1.314.543,16.682,16.682,0,0,0,1.333,1.338,2.806,2.806,0,0,0,3.764.055.712.712,0,0,0,.055-1.186q-1.965-2.01-3.936-4.014c-.749-.76-1.515-1.5-2.257-2.271a.84.84,0,0,1-.25-.527.508.508,0,0,1,.84-.409,6.754,6.754,0,0,1,.651.695q.784.8,1.585,1.579a.475.475,0,0,0,.3.128c1.929,0,3.858,0,5.787-.005.01,0,.019-.012.056-.038a1.025,1.025,0,0,0-.082-.108c-1.376-1.4-2.759-2.8-4.125-4.207a2.252,2.252,0,0,0-1.721-.711q-6.618.013-13.236,0c-.587,0-.827-.145-.838-.5s.245-.536.846-.536c4.4,0,8.8.011,13.2-.008a3.314,3.314,0,0,1,2.545,1.058c.944.982,1.928,1.927,2.886,2.9q.9.916,1.779,1.86a.9.9,0,0,0,.734.311q8.354-.015,16.709-.013a.952.952,0,0,1,.816.314Zm-1.081-17.727H432.9c.09.1.138.157.19.211.5.513,1.03,1.007,1.5,1.547a.88.88,0,0,0,.726.385q7.505-.015,15.011-.007c.679,0,.738.052.827.717a1.984,1.984,0,0,0,1.8,1.765c.555.046.694.189.7.747q0,3.123,0,6.246c0,.54-.13.675-.665.732a1.993,1.993,0,0,0-1.84,1.82c-.066.574-.19.685-.792.685H434.619c-.614,0-.723-.1-.808-.716a1.978,1.978,0,0,0-1.786-1.785c-.614-.075-.71-.183-.711-.806,0-1.671,0-3.341-.005-5.012a.559.559,0,0,0-.113-.372c-.692-.649-1.4-1.282-2.1-1.918-.089-.08-.187-.149-.349-.276V53.545h27.487Zm-23.854,6.707c0,1.5-.005,2.963.012,4.426,0,.092.167.227.282.264a2.947,2.947,0,0,1,2.049,2.023c.1.314.236.375.534.375q7.233-.013,14.467-.006h.4a3.122,3.122,0,0,1,2.461-2.472V42.232c-.021-.02-.028-.032-.038-.035l-.294-.092a2.9,2.9,0,0,1-2-1.972.475.475,0,0,0-.553-.4q-6.616.015-13.232.007h-.458c.054.111.079.165.107.218a1.7,1.7,0,0,1-.384,2.229,3.762,3.762,0,0,1-3.008,1.084,3.239,3.239,0,0,0-.349,0" transform="translate(-206.684 2713.476)" fill="#fff" stroke="#fff" stroke-width="0.5"/>
    <path id="Trazado_8645" data-name="Trazado 8645" d="M457.313,54.285a.771.771,0,0,1-.719.346q-14.1-.008-28.209-.005c-.582,0-.719-.146-.72-.74q0-3.856,0-7.711v-.52h-3.131a2.894,2.894,0,0,1-2.086-.852c-.424-.413-.829-.844-1.257-1.252a2.064,2.064,0,0,0-1.674-.693,9.257,9.257,0,0,1-1.08,0c-.395-.007-.632-.206-.638-.52s.232-.539.618-.539a16.477,16.477,0,0,1,1.771.045,2.984,2.984,0,0,1,2.047,1.233,8.082,8.082,0,0,0,1.188,1.151,1.31,1.31,0,0,0,.728.317c1.154.033,2.309.015,3.488.015v-3.95c-.3-.013-.594-.023-.886-.04a4.163,4.163,0,0,1-3.941-4.081c-.021-.425.17-.678.492-.693s.53.215.558.647a3.124,3.124,0,0,0,2.468,3.006,11.64,11.64,0,0,0,2.23.082,1.509,1.509,0,0,1,1.314.543,16.682,16.682,0,0,0,1.333,1.338,2.806,2.806,0,0,0,3.764.055.712.712,0,0,0,.055-1.186q-1.965-2.01-3.936-4.014c-.749-.76-1.515-1.5-2.257-2.271a.84.84,0,0,1-.25-.527.508.508,0,0,1,.84-.409,6.754,6.754,0,0,1,.651.695q.784.8,1.585,1.579a.475.475,0,0,0,.3.128c1.929,0,3.858,0,5.787-.005.01,0,.019-.012.056-.038a1.025,1.025,0,0,0-.082-.108c-1.376-1.4-2.759-2.8-4.125-4.207a2.252,2.252,0,0,0-1.721-.711q-6.618.013-13.236,0c-.587,0-.827-.145-.838-.5s.245-.536.846-.536c4.4,0,8.8.011,13.2-.008a3.314,3.314,0,0,1,2.545,1.058c.944.982,1.928,1.927,2.886,2.9q.9.916,1.779,1.86a.9.9,0,0,0,.734.311q8.354-.015,16.709-.013a.952.952,0,0,1,.816.314Zm-1.081-17.727H432.9c.09.1.138.157.19.211.5.513,1.03,1.007,1.5,1.547a.88.88,0,0,0,.726.385q7.505-.015,15.011-.007c.679,0,.738.052.827.717a1.984,1.984,0,0,0,1.8,1.765c.555.046.694.189.7.747q0,3.123,0,6.246c0,.54-.13.675-.665.732a1.993,1.993,0,0,0-1.84,1.82c-.066.574-.19.685-.792.685H434.619c-.614,0-.723-.1-.808-.716a1.978,1.978,0,0,0-1.786-1.785c-.614-.075-.71-.183-.711-.806,0-1.671,0-3.341-.005-5.012a.559.559,0,0,0-.113-.372c-.692-.649-1.4-1.282-2.1-1.918-.089-.08-.187-.149-.349-.276V53.545h27.487Zm-23.854,6.707c0,1.5-.005,2.963.012,4.426,0,.092.167.227.282.264a2.947,2.947,0,0,1,2.049,2.023c.1.314.236.375.534.375q7.233-.013,14.467-.006h.4a3.122,3.122,0,0,1,2.461-2.472V42.232c-.021-.02-.028-.032-.038-.035l-.294-.092a2.9,2.9,0,0,1-2-1.972.475.475,0,0,0-.553-.4q-6.616.015-13.232.007h-.458c.054.111.079.165.107.218a1.7,1.7,0,0,1-.384,2.229,3.762,3.762,0,0,1-3.008,1.084A3.239,3.239,0,0,0,432.378,43.265Z" transform="translate(-206.684 2713.476)" fill="none" stroke="#fff" stroke-width="0.5"/>
    <path id="Trazado_8646" data-name="Trazado 8646" d="M647.44,164.261a4.043,4.043,0,0,1-3.984-4.141,3.992,3.992,0,1,1,7.982.1,4.028,4.028,0,0,1-4,4.045m-.012-1.061a3.1,3.1,0,0,0,2.967-2.976,2.945,2.945,0,1,0-5.887-.042,3.1,3.1,0,0,0,2.921,3.018" transform="translate(-411.646 2598.328)" fill="#fff" stroke="#fff" stroke-width="0.5"/>
    <path id="Trazado_8647" data-name="Trazado 8647" d="M647.44,164.261a4.043,4.043,0,0,1-3.984-4.141,3.992,3.992,0,1,1,7.982.1A4.028,4.028,0,0,1,647.44,164.261Zm-.012-1.061a3.1,3.1,0,0,0,2.967-2.976,2.945,2.945,0,1,0-5.887-.042A3.1,3.1,0,0,0,647.428,163.2Z" transform="translate(-411.646 2598.328)" fill="none" stroke="#fff" stroke-width="0.5"/>
    <path id="Trazado_8648" data-name="Trazado 8648" d="M617.207,196.259c-.161.123-.309.321-.486.353-.273.049-.451-.141-.453-.434a.379.379,0,0,1,.428-.424c.18.024.338.21.506.324q0,.09,0,.181" transform="translate(-386.952 2562.335)" fill="#fff" stroke="#fff" stroke-width="0.5"/>
    <path id="Trazado_8649" data-name="Trazado 8649" d="M617.207,196.259c-.161.123-.309.321-.486.353-.273.049-.451-.141-.453-.434a.379.379,0,0,1,.428-.424c.18.024.338.21.506.324Q617.2,196.168,617.207,196.259Z" transform="translate(-386.952 2562.335)" fill="none" stroke="#fff" stroke-width="0.5"/>
    <path id="Trazado_8650" data-name="Trazado 8650" d="M747.71,196.267c.169-.11.347-.317.5-.3a.6.6,0,0,1,.381.417.356.356,0,0,1-.411.423c-.176-.03-.322-.233-.481-.358q0-.09.008-.18" transform="translate(-506.333 2562.14)" fill="#fff" stroke="#fff" stroke-width="0.5"/>
    <path id="Trazado_8651" data-name="Trazado 8651" d="M747.71,196.267c.169-.11.347-.317.5-.3a.6.6,0,0,1,.381.417.356.356,0,0,1-.411.423c-.176-.03-.322-.233-.481-.358Q747.706,196.358,747.71,196.267Z" transform="translate(-506.333 2562.14)" fill="none" stroke="#fff" stroke-width="0.5"/>
  </g>
</svg>
