<svg xmlns="http://www.w3.org/2000/svg" width="200.442" height="200.757" viewBox="0 0 33.442 20.757">
  <g id="Grupo_4010" data-name="Grupo 4010" transform="translate(-128.178 -2824.822)">
    <path id="Trazado_8660" data-name="Trazado 8660" d="M33.442,460.767a3.066,3.066,0,0,1-.96,1.73,2.985,2.985,0,0,1-2.027.665q-4.733,0-9.467,0-8.993,0-17.987,0A2.864,2.864,0,0,1,.569,462.08a2.709,2.709,0,0,1-.564-1.7Q0,452.789.007,445.2A2.722,2.722,0,0,1,2.9,442.416q12.5,0,25.005,0c1.044,0,2.093-.039,3.131.045a2.61,2.61,0,0,1,2.35,2.155c.016.072.038.143.058.215Zm-16.874.585h14.18c.872,0,1.068-.2,1.068-1.082q0-7.581,0-15.162c0-.822-.223-1.046-1.04-1.046H2.416c-.829,0-1.051.218-1.051,1.035q0,7.615,0,15.229a2.176,2.176,0,0,0,.039.469.634.634,0,0,0,.579.531,3.934,3.934,0,0,0,.472.025H16.569" transform="translate(128.178 2382.415)" fill="#fff"/>
    <path id="Trazado_8661" data-name="Trazado 8661" d="M216.045,500.514c1.13,0,2.261-.008,3.391,0a1,1,0,0,1,1.1,1.056.981.981,0,0,1-.833.944,2.443,2.443,0,0,1-.389.028q-3.293,0-6.587,0a1.905,1.905,0,0,1-.577-.074,1,1,0,0,1,.212-1.934,3.355,3.355,0,0,1,.423-.021q1.63,0,3.261,0" transform="translate(-63.211 2329.835)" fill="#fff"/>
    <path id="Trazado_8662" data-name="Trazado 8662" d="M215.958,542.848c-1.185,0-2.37.008-3.555,0a1,1,0,0,1-.494-1.852,1.284,1.284,0,0,1,.586-.162q3.457-.017,6.914,0a1.015,1.015,0,1,1-.027,2.025c-1.141.007-2.283,0-3.425,0Z" transform="translate(-63.148 2293.359)" fill="#fff"/>
    <path id="Trazado_8663" data-name="Trazado 8663" d="M215.235,583.282c-.87,0-1.74,0-2.609,0a1.019,1.019,0,1,1,0-2.027q2.642,0,5.284,0a1.019,1.019,0,1,1,0,2.027c-.891,0-1.783,0-2.675,0" transform="translate(-63.213 2256.77)" fill="#fff"/>
    <path id="Trazado_8664" data-name="Trazado 8664" d="M62.761,495.174a3.034,3.034,0,1,1,5.23,0c.108.031.213.058.318.09a2.236,2.236,0,0,1,1.609,2.06c.021.536.019,1.074.007,1.61a2.26,2.26,0,0,1-2.28,2.294q-2.272.035-4.545,0a2.278,2.278,0,0,1-2.282-2.345c0-.489-.007-.979,0-1.468a2.279,2.279,0,0,1,1.764-2.188c.053-.013.1-.028.178-.048m2.589,4.535c.749,0,1.5,0,2.248,0a.738.738,0,0,0,.809-.81c.005-.481.006-.962,0-1.443a.713.713,0,0,0-.759-.782q-2.271-.015-4.543,0a.731.731,0,0,0-.769.8c0,.45,0,.9,0,1.349a.776.776,0,0,0,.886.885c.71,0,1.42,0,2.129,0m.02-4.565a1.517,1.517,0,0,0,.008-3.034,1.517,1.517,0,1,0-.008,3.034" transform="translate(73.145 2338.811)" fill="#fff"/>
  </g>
</svg>
