<svg xmlns="http://www.w3.org/2000/svg" xmlns:xlink="http://www.w3.org/1999/xlink" width="59" height="40" viewBox="0 0 59 40">
  <defs>
    <clipPath id="clip-DPI">
      <rect width="59" height="40"/>
    </clipPath>
  </defs>
  <g id="DPI" clip-path="url(#clip-DPI)">
    <rect width="59" height="40" fill="#fff"/>
    <g id="Grupo_1" data-name="Grupo 1">
      <path id="Trazado_1" data-name="Trazado 1" d="M29.719,0Q41.386,0,53.052,0c4.154,0,6.4,2.255,6.4,6.429q0,13.591,0,27.182c0,4.148-2.259,6.385-6.442,6.385Q29.731,40,6.457,40C2.221,40,0,37.766,0,33.506Q0,20.031,0,6.557C0,2.161,2.184,0,6.62,0q11.549,0,23.1,0M29.8,37.27q11.666,0,23.331,0c2.569,0,3.6-1.036,3.6-3.608q0-13.649,0-27.3c0-2.623-1.038-3.645-3.692-3.645q-23.331,0-46.662,0c-2.62,0-3.66,1.046-3.661,3.68q0,13.59,0,27.18c0,2.722.98,3.688,3.749,3.689q11.666,0,23.331,0" transform="translate(0 0)" fill="#00c1d4"/>
      <path id="Trazado_2" data-name="Trazado 2" d="M139.222,79.963q4.667,0,9.334,0c.906,0,1.654.223,1.754,1.277.082.867-.576,1.4-1.737,1.4-3.928.011-7.856,0-11.784,0-2.411,0-4.823.016-7.234,0-1.112-.01-1.77-.629-1.63-1.5.157-.977.876-1.179,1.73-1.178q4.784.008,9.567,0" transform="translate(-98.059 -61.302)" fill="#00c1d4"/>
      <path id="Trazado_3" data-name="Trazado 3" d="M139.077,114.663h-8.613c-.272,0-.543-.005-.815,0-.922.013-1.631-.283-1.707-1.322-.063-.864.588-1.354,1.77-1.366,1.28-.013,2.56,0,3.841,0h14.782a6.435,6.435,0,0,1,.7.02,1.257,1.257,0,0,1,1.3,1.352,1.275,1.275,0,0,1-1.358,1.3c-.619.037-1.241.018-1.862.019q-4.016,0-8.031,0" transform="translate(-98.083 -85.838)" fill="#00c1d4"/>
      <path id="Trazado_4" data-name="Trazado 4" d="M134.77,50.631h-5.123c-.932,0-1.655-.332-1.646-1.371.009-.972.707-1.314,1.585-1.316q5.181-.01,10.362,0c.886,0,1.55.383,1.527,1.363s-.7,1.313-1.583,1.316c-1.708.007-3.415,0-5.123,0" transform="translate(-98.132 -36.752)" fill="#00c1d4"/>
      <path id="Trazado_5" data-name="Trazado 5" d="M41.511,61.488a15.767,15.767,0,0,0-.722-1.462,10.648,10.648,0,0,0-4.523-4.234c2.724-4.343,2.575-7.614-.4-10.012a6.536,6.536,0,0,0-8.717.471c-2.576,2.56-2.528,6.121.216,9.54-.388.253-.709.461-1.029.672a10.528,10.528,0,0,0-4.228,5.415,1.179,1.179,0,0,0,.685,1.634,1.393,1.393,0,0,0,.649.11,1.511,1.511,0,0,0,.17.011H40.066a1.448,1.448,0,0,0,.178-.012,1.376,1.376,0,0,0,.771-.137c.906-.407.846-1.208.5-2M31.772,46.916a3.936,3.936,0,1,1-3.95,4.012,3.964,3.964,0,0,1,3.95-4.012m.31,10.522a7.233,7.233,0,0,1,6.047,3.247h-12.5a7.264,7.264,0,0,1,6.453-3.247" transform="translate(-16.868 -33.99)" fill="#ffb81c"/>
    </g>
  </g>
</svg>
