<svg xmlns="http://www.w3.org/2000/svg" width="40.055" height="25.521" viewBox="0 0 31.055 39.521">
  <g id="Grupo_4012" data-name="Grupo 4012" transform="translate(-128.966 -2737.298)">
    <path id="Trazado_8652" data-name="Trazado 8652" d="M26.831,1.5A4.431,4.431,0,0,1,28.953,2.89q2.475,2.518,4.993,4.994a3.408,3.408,0,0,1,1.077,2.578Q35,24.547,35.015,38.631a2.132,2.132,0,0,1-2.4,2.393H6.372a2.132,2.132,0,0,1-2.39-2.407q0-17.229-.014-34.459A2.389,2.389,0,0,1,5.681,1.5ZM33.441,9.29c-.182-.194-.283-.308-.39-.415-1.8-1.8-3.609-3.6-5.4-5.409a2.072,2.072,0,0,0-1.58-.649q-9.822.017-19.645.007c-.9,0-1.124.226-1.124,1.115q0,17.329,0,34.658c0,.871.233,1.106,1.1,1.106H32.6c.846,0,1.09-.24,1.09-1.072q0-13.8,0-27.595V10.61h-.481c-1.711,0-3.422.007-5.133,0a2.014,2.014,0,0,1-2.139-1.853c-.074-1.256-.037-2.52-.022-3.78a.624.624,0,0,1,.69-.625.637.637,0,0,1,.615.661c.007.1,0,.206,0,.309,0,.991,0,1.981,0,2.972,0,.721.283,1,1.011,1,.849,0,1.7,0,2.547,0Z" transform="translate(124.998 2735.795)" fill="#fff"/>
    <path id="Trazado_8654" data-name="Trazado 8654" d="M41.139,74.281v4.268h4.286V76.605c-.331.34-.589.619-.862.884a.693.693,0,0,1-1.135.006q-.623-.6-1.227-1.228a.671.671,0,1,1,.947-.925c.275.27.532.557.823.864.742-.741,1.446-1.447,2.154-2.15a2.459,2.459,0,0,1,.348-.3.609.609,0,0,1,.81.077.647.647,0,0,1,.068.845.2.2,0,0,1-.046.061c-.569.377-.555.944-.534,1.535.026.706.012,1.414,0,2.121A1.364,1.364,0,0,1,45.269,79.9q-1.987.014-3.973,0a1.368,1.368,0,0,1-1.5-1.518q0-1.967,0-3.935a1.386,1.386,0,0,1,1.535-1.522q1.254,0,2.508,0c.509,0,.824.27.813.675s-.313.64-.8.643c-.862.005-1.723,0-2.585.006a.829.829,0,0,0-.125.029" transform="translate(93.427 2672.861)" fill="#fff"/>
    <path id="Trazado_8655" data-name="Trazado 8655" d="M40.436,178.572c0-.668,0-1.337,0-2a1.37,1.37,0,0,1,1.439-1.465q2.043-.022,4.087,0a1.345,1.345,0,0,1,1.445,1.415q.027,2.081,0,4.164a1.336,1.336,0,0,1-1.413,1.407q-2.062.03-4.125,0a1.367,1.367,0,0,1-1.432-1.472c-.005-.681,0-1.362,0-2.043m5.62,2.159v-4.268h-4.3c0,1.339.009,2.637-.007,3.935,0,.3.092.37.374.367,1.209-.013,2.418-.005,3.627-.007.1,0,.2-.017.307-.027" transform="translate(92.865 2582.836)" fill="#fff"/>
    <path id="Trazado_8656" data-name="Trazado 8656" d="M118.276,109.969h-6.013a3.248,3.248,0,0,1-.385-.01.652.652,0,0,1-.014-1.3,2.415,2.415,0,0,1,.346-.012H124.39a2.084,2.084,0,0,1,.384.019.65.65,0,0,1-.023,1.286,2.59,2.59,0,0,1-.385.014h-6.09" transform="translate(30.443 2641.383)" fill="#fff"/>
    <path id="Trazado_8657" data-name="Trazado 8657" d="M117.549,212.177q-2.313,0-4.627,0a2.416,2.416,0,0,1-.422-.023.6.6,0,0,1-.536-.611.6.6,0,0,1,.454-.637,1.312,1.312,0,0,1,.379-.053q4.762,0,9.524,0a1.422,1.422,0,0,1,.268.019.637.637,0,0,1,.57.7.614.614,0,0,1-.636.594c-.552.02-1.1.011-1.658.011h-3.316" transform="translate(29.838 2551.327)" fill="#fff"/>
    <path id="Trazado_8658" data-name="Trazado 8658" d="M116.08,187.1q1.62,0,3.241,0a2.51,2.51,0,0,1,.46.032.641.641,0,0,1,.065,1.238,1.787,1.787,0,0,1-.494.058q-3.241.006-6.481,0c-.064,0-.129,0-.193,0-.464-.026-.755-.274-.765-.653-.01-.4.282-.669.772-.673,1.132-.01,2.263,0,3.395,0" transform="translate(29.881 2572.259)" fill="#fff"/>
    <path id="Trazado_8659" data-name="Trazado 8659" d="M115.137,86.094c-.963,0-1.926,0-2.889,0a1.941,1.941,0,0,1-.459-.037.6.6,0,0,1-.479-.58.593.593,0,0,1,.4-.636,1.539,1.539,0,0,1,.529-.073q2.908-.007,5.816,0a1.691,1.691,0,0,1,.455.054.59.59,0,0,1,.456.666.583.583,0,0,1-.52.578,3.3,3.3,0,0,1-.537.03c-.924,0-1.849,0-2.773,0" transform="translate(30.415 2662.431)" fill="#fff"/>
  </g>
</svg>
