<svg xmlns="http://www.w3.org/2000/svg" width="21.488" height="22.046" viewBox="0 0 21.488 22.046">
  <path id="Icon_awesome-arrow-down" data-name="Icon awesome-arrow-down" d="M20.446,11.624l1.092,1.092a1.176,1.176,0,0,1,0,1.668L11.978,23.95a1.176,1.176,0,0,1-1.668,0L.744,14.384a1.176,1.176,0,0,1,0-1.668l1.092-1.092a1.182,1.182,0,0,1,1.688.02l5.649,5.929V3.431A1.178,1.178,0,0,1,10.354,2.25h1.575a1.178,1.178,0,0,1,1.181,1.181V17.573l5.649-5.929a1.174,1.174,0,0,1,1.688-.02Z" transform="translate(-0.397 -2.25)" fill="#f4bb48"/>
</svg>
