<svg xmlns="http://www.w3.org/2000/svg" width="33.349" height="42.032" viewBox="0 0 33.349 42.032">
  <g id="Grupo_4063" data-name="Grupo 4063" transform="translate(-128.216 -2736.548)">
    <path id="Trazado_8652" data-name="Trazado 8652" d="M27.416,1.5a4.544,4.544,0,0,1,2.176,1.423q2.539,2.582,5.12,5.121a3.5,3.5,0,0,1,1.1,2.644q-.02,14.445-.008,28.89a2.186,2.186,0,0,1-2.465,2.454H6.433a2.187,2.187,0,0,1-2.451-2.468q0-17.67-.015-35.34A2.45,2.45,0,0,1,5.725,1.5Zm6.778,7.986c-.187-.2-.29-.316-.4-.426-1.847-1.848-3.7-3.688-5.536-5.547a2.125,2.125,0,0,0-1.621-.665q-10.074.017-20.147.007c-.92,0-1.153.231-1.153,1.144q0,17.772,0,35.545c0,.893.239,1.134,1.123,1.134H33.336c.867,0,1.118-.246,1.118-1.1q0-14.151,0-28.3v-.437h-.493c-1.755,0-3.51.007-5.264,0A2.066,2.066,0,0,1,26.5,8.94c-.076-1.288-.038-2.585-.023-3.877a.64.64,0,0,1,.707-.64.653.653,0,0,1,.631.678c.007.105,0,.211,0,.317,0,1.016,0,2.032,0,3.048,0,.739.29,1.022,1.037,1.024.871,0,1.742,0,2.612,0Z" transform="translate(124.998 2735.795)" fill="#00c1d4" stroke="#00c1d4" stroke-width="1.5"/>
    <path id="Trazado_8654" data-name="Trazado 8654" d="M41.174,74.315v4.377h4.4V76.7c-.339.349-.6.635-.884.906a.711.711,0,0,1-1.164.006q-.639-.619-1.258-1.259a.688.688,0,1,1,.971-.948c.282.276.545.572.844.887.761-.76,1.483-1.484,2.209-2.2a2.523,2.523,0,0,1,.357-.31.624.624,0,0,1,.831.079.664.664,0,0,1,.069.867.21.21,0,0,1-.048.063c-.584.386-.57.969-.548,1.574.026.724.013,1.451,0,2.176a1.4,1.4,0,0,1-1.544,1.546q-2.037.014-4.075,0A1.4,1.4,0,0,1,39.8,78.524q-.005-2.018,0-4.036a1.421,1.421,0,0,1,1.574-1.561q1.286,0,2.572,0c.522,0,.845.276.834.692s-.321.656-.826.659c-.884.005-1.767,0-2.651.006a.85.85,0,0,0-.128.03" transform="translate(93.536 2673.078)" fill="#00c1d4"/>
    <path id="Trazado_8655" data-name="Trazado 8655" d="M40.436,178.661c0-.685,0-1.371,0-2.056a1.4,1.4,0,0,1,1.476-1.5q2.1-.022,4.191,0a1.379,1.379,0,0,1,1.482,1.452q.028,2.135,0,4.27a1.37,1.37,0,0,1-1.449,1.443q-2.115.031-4.23,0a1.4,1.4,0,0,1-1.469-1.51c-.006-.7,0-1.4,0-2.1m5.763,2.214V176.5H41.789c0,1.373.009,2.7-.007,4.036,0,.3.095.38.383.377,1.24-.013,2.48-.005,3.72-.007.1,0,.2-.018.315-.028" transform="translate(92.976 2583.364)" fill="#00c1d4"/>
    <path id="Trazado_8656" data-name="Trazado 8656" d="M118.455,110h-6.167a3.333,3.333,0,0,1-.395-.01.668.668,0,0,1-.015-1.331,2.478,2.478,0,0,1,.355-.012h12.492a2.137,2.137,0,0,1,.394.02.666.666,0,0,1-.024,1.319,2.656,2.656,0,0,1-.394.014h-6.246" transform="translate(30.769 2641.708)" fill="#feb81c" stroke="#ffb81c" stroke-width="0.3"/>
    <path id="Trazado_8657" data-name="Trazado 8657" d="M117.692,212.211q-2.373,0-4.745,0a2.477,2.477,0,0,1-.433-.023.62.62,0,0,1-.55-.626.61.61,0,0,1,.466-.653,1.345,1.345,0,0,1,.388-.055q4.884,0,9.767,0a1.458,1.458,0,0,1,.275.02.654.654,0,0,1,.585.718.629.629,0,0,1-.652.61c-.566.021-1.133.011-1.7.012h-3.4" transform="translate(30.166 2551.963)" fill="#feb81c" stroke="#ffb81c" stroke-width="0.3"/>
    <path id="Trazado_8658" data-name="Trazado 8658" d="M116.186,187.1q1.662,0,3.324,0a2.578,2.578,0,0,1,.472.033.658.658,0,0,1,.067,1.269,1.833,1.833,0,0,1-.507.06q-3.324.006-6.647,0c-.066,0-.132,0-.2,0-.476-.027-.774-.281-.784-.669-.01-.407.289-.686.791-.691,1.16-.01,2.321,0,3.482,0" transform="translate(30.209 2572.823)" fill="#feb81c" stroke="#ffb81c" stroke-width="0.3"/>
    <path id="Trazado_8659" data-name="Trazado 8659" d="M115.235,86.128c-.988,0-1.975,0-2.963,0a1.99,1.99,0,0,1-.471-.038.618.618,0,0,1-.492-.6.608.608,0,0,1,.411-.653,1.578,1.578,0,0,1,.542-.075q2.982-.008,5.965,0a1.734,1.734,0,0,1,.467.055.605.605,0,0,1,.468.684.6.6,0,0,1-.533.593,3.383,3.383,0,0,1-.551.031c-.948,0-1.9,0-2.844,0" transform="translate(30.742 2662.684)" fill="#feb81c" stroke="#ffb81c" stroke-width="0.3"/>
  </g>
</svg>
