<svg xmlns="http://www.w3.org/2000/svg" xmlns:xlink="http://www.w3.org/1999/xlink" width="93.078" height="79" viewBox="0 0 93.078 79">
  <defs>
    <clipPath id="clip-path">
      <rect id="Rectángulo_2137" data-name="Rectángulo 2137" width="93.078" height="79" fill="#00c1d4"/>
    </clipPath>
  </defs>
  <g id="Grupo_4201" data-name="Grupo 4201" transform="translate(-5 1)">
    <g id="Grupo_4199" data-name="Grupo 4199" transform="translate(5 -1)" clip-path="url(#clip-path)">
      <path id="Trazado_8747" data-name="Trazado 8747" d="M162.884,68.876q7.994-29.845,15.983-59.692c.789-2.935.376-5.56-2.019-7.541A15.689,15.689,0,0,0,173.524,0h-1.85a6.871,6.871,0,0,0-4.426,2.677A10.636,10.636,0,0,0,166,5.29c-.5,1.535-.858,3.115-1.285,4.71H143.946c.16-.733.355-1.439.463-2.156A6.682,6.682,0,0,0,139.074.139,2.481,2.481,0,0,1,138.721,0h-1.848A21.7,21.7,0,0,0,133.7,1.47a6.48,6.48,0,0,0-2.5,3.946q-8.471,31.705-16.953,63.412c-.1.38-.2.758-.3,1.138a6.883,6.883,0,0,0,2.025,7.427,5.822,5.822,0,0,0,1.718,1.045c4.293.249,8.959.422,13.873.505a3.844,3.844,0,0,0,.9-.77,1.57,1.57,0,0,0-1.333-2.426c-1.356-.064-2.718-.025-4.077-.029-.276,0-.554,0-.743,0q1.018-3.787,2.031-7.551,1.117-4.146,2.243-8.276a.763.763,0,0,1,.54-.457q10.117-.02,20.234.008a.722.722,0,0,1,.133.044c-.633,2.37-1.275,4.743-1.9,7.121-.139.53-.287,1.061-.43,1.589a31.249,31.249,0,0,0-.723,3.115,6.631,6.631,0,0,0,4.716,7.4c5.265-.21,10.11-.527,14.342-.93a1.745,1.745,0,0,0,.046-.525,1.612,1.612,0,0,0-1.778-1.531c-1.589-.023-3.179-.006-4.814-.006.309-1.013.635-1.969.895-2.941q.524-1.953,1.045-3.9m.166-55.537c.224,0,.447.023.766.042-.258.953-.53,1.784-.694,2.637-.114.584-.43.633-.918.633q-8.2-.02-16.39-.008c-2.206,0-4.413.014-6.619-.006-1.29-.012-2.035-.773-1.886-1.879a1.476,1.476,0,0,1,1.2-1.329,3.948,3.948,0,0,1,.916-.089q11.812-.006,23.625,0M148.4,36.4q-7.076,0-14.153,0c-1.45,0-2.241-.567-2.272-1.624s.795-1.682,2.286-1.682q11.691,0,23.382,0h.891c-.307,1.159-.582,2.21-.872,3.31Zm8.3,3.29a2.7,2.7,0,0,1-.039.438c-.787,2.951-1.585,5.9-2.365,8.851-.1.37-.2.573-.644.573q-10.007-.02-20.014-.014a2.047,2.047,0,0,1-.3-.056c.885-3.306,1.753-6.546,2.623-9.792Zm-17.617-9.9c-.125,0-.249-.021-.463-.041.874-3.281,1.738-6.517,2.615-9.809h20.745a5.422,5.422,0,0,1-.085.6c-.766,2.876-1.541,5.746-2.3,8.623-.11.426-.249.638-.752.636q-9.883-.029-19.765-.014M124.473,69.908c-.28,1.041-.546,2.087-.841,3.123A3.423,3.423,0,1,1,117,71.343q.356-1.371.717-2.739c1.34-5.094,2.71-10.18,4.072-15.268q6.3-23.578,12.612-47.155a3.43,3.43,0,0,1,2.816-2.806A3.261,3.261,0,0,1,140.632,4.8a3.358,3.358,0,0,1,.513,2.723A4.647,4.647,0,0,1,140.5,9.7c-.386.4-1.325.289-2.023.38a4.936,4.936,0,0,0-1.057,9.62c.118.042.235.079.413.139-.056.245-.1.465-.156.681-.729,2.752-1.495,5.5-2.172,8.265-.195.793-.486,1.088-1.325,1.028a4.95,4.95,0,0,0-2.243,9.561c.189.071.378.139.644.237-.883,3.3-1.761,6.588-2.644,9.892-.721.033-1.416.019-2.1.106a4.837,4.837,0,0,0-4.365,4.2,4.892,4.892,0,0,0,3.381,5.4c.118.041.237.075.446.143-.806,3.013-1.6,5.973-2.386,8.924-.147.544-.293,1.09-.438,1.634m4.55-13.767a4.684,4.684,0,0,1-1.138-.118,1.571,1.571,0,0,1-1.177-1.6,1.588,1.588,0,0,1,1.3-1.5,4.387,4.387,0,0,1,.841-.077q11.81-.006,23.623,0c.224,0,.447.025.779.044-.311,1.151-.588,2.185-.879,3.263h-.878q-11.237,0-22.471-.006m29.415,16.683a3.428,3.428,0,0,1-2.747,2.787,3.139,3.139,0,0,1-3.422-1.369,10.487,10.487,0,0,1-.808-1.946c.039-.023.075-.048.112-.071.089-.453.15-.912.268-1.356q.341-1.282.685-2.561,8.283-31,16.554-61.995c.793-2.98,3.47-3.541,5.182-2.548a3.344,3.344,0,0,1,1.6,3.757c-1.055,4.1-2.162,8.187-3.254,12.278q-6.53,24.426-13.059,48.852-.558,2.086-1.115,4.172" transform="translate(-91.697)" fill="#ffb81c"/>
      <path id="Trazado_8748" data-name="Trazado 8748" d="M71.187,353.631q-1.623-.121-3.331-.224h0q-.557,2.086-1.115,4.172A3.43,3.43,0,0,1,64,360.367,3.141,3.141,0,0,1,60.573,359a10.526,10.526,0,0,1-.808-1.945l.111-.073c.088-.452.15-.911.268-1.355l.685-2.562h0q-1.661-.061-3.371-.11c-3.5-.1-7.157-.152-10.918-.152-3.4,0-6.714.042-9.906.123q-1.736.046-3.42.106h0l-.437,1.633c-.279,1.041-.545,2.086-.841,3.122A3.423,3.423,0,1,1,25.3,356.1q.357-1.37.72-2.739h0q-1.782.1-3.476.224C9.036,354.542,0,356.285,0,358.278c0,2.158,10.591,4.023,25.986,4.916,4.293.249,8.959.422,13.873.505,2.181.037,4.413.056,6.681.056,5.215,0,10.23-.1,14.911-.287,5.265-.21,10.11-.527,14.342-.93,10.544-1,17.285-2.54,17.285-4.26,0-1.96-8.745-3.678-21.891-4.646" transform="translate(0 -284.755)" fill="#00c1d4"/>
    </g>
  </g>
</svg>
