<svg xmlns="http://www.w3.org/2000/svg" width="40.564" height="40.532" viewBox="0 0 40.564 40.532">
  <g id="Grupo_4060" data-name="Grupo 4060" transform="translate(-135.106 -2886.562)">
    <path id="Trazado_8666" data-name="Trazado 8666" d="M111.494,919.677a12.388,12.388,0,0,1-9.942-4.785,2.021,2.021,0,1,1,3.166-2.51,8.11,8.11,0,0,0,12.8.146,2.121,2.121,0,0,1,2.272-.9,2,2,0,0,1,1.085,3.18,11.853,11.853,0,0,1-7.106,4.549c-.844.183-1.715.243-2.279.319" transform="translate(44.2 1999.301)" fill="#ffb81c"/>
    <path id="Trazado_8667" data-name="Trazado 8667" d="M34.9,762.338a35.705,35.705,0,0,1,.193-4.014,5.889,5.889,0,0,1,5.592-4.854c2.147-.054,4.3-.03,6.444-.011a2.008,2.008,0,0,1-.034,4.016c-1.927.019-3.854.005-5.781.008a2.087,2.087,0,0,0-2.329,2.347c0,1.943.009,3.887-.011,5.83a1.949,1.949,0,0,1-1.424,1.861,1.9,1.9,0,0,1-2.178-.731,2.725,2.725,0,0,1-.4-1.274c-.056-1.055-.018-2.116-.018-3.175l-.054,0" transform="translate(100.203 2133.127)" fill="#00c1d4"/>
    <path id="Trazado_8668" data-name="Trazado 8668" d="M220.57,762.343q0,1.446,0,2.891c0,1.44-.78,2.358-2,2.365s-2.025-.914-2.026-2.342q0-2.725,0-5.451a2.086,2.086,0,0,0-2.342-2.334c-1.943,0-3.886.008-5.829-.01a1.961,1.961,0,0,1-1.852-1.374,1.909,1.909,0,0,1,.64-2.169,2.3,2.3,0,0,1,1.2-.454c2.195-.04,4.392-.066,6.586,0a5.985,5.985,0,0,1,5.6,5.605c.045,1.088.007,2.18.007,3.27h.015" transform="translate(-44.953 2133.137)" fill="#00c1d4"/>
    <path id="Trazado_8669" data-name="Trazado 8669" d="M44.051,938.957a35.694,35.694,0,0,1-3.967-.187,5.893,5.893,0,0,1-4.887-5.613c-.053-2.147-.03-4.3-.01-6.445a2.006,2.006,0,0,1,4.012.014c.023,1.927.008,3.855.01,5.782a2.1,2.1,0,0,0,2.36,2.365c1.943,0,3.886-.011,5.828.011a1.973,1.973,0,0,1,1.91,1.664,2,2,0,0,1-1.2,2.19,2.692,2.692,0,0,1-.922.159c-1.042.019-2.085.007-3.127.007,0,.017,0,.035,0,.052" transform="translate(99.982 1988.137)" fill="#00c1d4"/>
    <path id="Trazado_8670" data-name="Trazado 8670" d="M220.651,930.022a35.947,35.947,0,0,1-.19,3.967,5.9,5.9,0,0,1-5.624,4.876c-2.131.052-4.265.028-6.4.01a2.008,2.008,0,0,1,0-4.016c1.927-.02,3.854-.006,5.781-.008a2.089,2.089,0,0,0,2.349-2.329c0-1.959-.012-3.918.013-5.877a1.978,1.978,0,0,1,1.771-1.912,2.01,2.01,0,0,1,2.167,1.456,2.946,2.946,0,0,1,.077.749c.008,1.027,0,2.054,0,3.081l.053,0" transform="translate(-44.981 1988.159)" fill="#00c1d4"/>
    <path id="Trazado_8671" data-name="Trazado 8671" d="M140.5,824.479c0-1-.007-1.992,0-2.988a2.033,2.033,0,1,1,4.053.018c0,1.9,0,3.795,0,5.692a2.018,2.018,0,0,0,2.093,2.232,2.028,2.028,0,1,1-.258,4.047,6.092,6.092,0,0,1-5.888-6.06c-.015-.98,0-1.96,0-2.941" transform="translate(10.836 2077.378)" fill="#00c1d4"/>
    <path id="Trazado_8672" data-name="Trazado 8672" d="M223.594,822.4c0,.347.012.695,0,1.041a2.005,2.005,0,0,1-1.854,1.931,1.916,1.916,0,0,1-2.129-1.652,13.468,13.468,0,0,1,0-2.735,1.943,1.943,0,0,1,2.082-1.667,2.025,2.025,0,0,1,1.9,1.945c.015.378,0,.757,0,1.136" transform="translate(-56.067 2077.377)" fill="#00c1d4"/>
    <path id="Trazado_8673" data-name="Trazado 8673" d="M91.908,822.345a13.125,13.125,0,0,1-.079,1.369,1.966,1.966,0,0,1-2.139,1.653,2,2,0,0,1-1.853-1.929q-.033-1.088,0-2.178a2.019,2.019,0,0,1,1.9-1.947,1.992,1.992,0,0,1,2.095,1.664,13.081,13.081,0,0,1,.079,1.368" transform="translate(55.416 2077.377)" fill="#00c1d4"/>
  </g>
</svg>
