<svg xmlns="http://www.w3.org/2000/svg" width="40.624" height="25.599" viewBox="0 0 31.624 31.599">
  <g id="Grupo_4007" data-name="Grupo 4007" transform="translate(-135.106 -2886.563)">
    <path id="Trazado_8666" data-name="Trazado 8666" d="M109.2,917.888a9.658,9.658,0,0,1-7.751-3.731,1.576,1.576,0,1,1,2.468-1.957,6.322,6.322,0,0,0,9.983.113,1.654,1.654,0,0,1,1.772-.7,1.562,1.562,0,0,1,.846,2.479,9.241,9.241,0,0,1-5.54,3.546c-.658.143-1.337.189-1.777.249" transform="translate(41.96 1993.947)" fill="#fff"/>
    <path id="Trazado_8667" data-name="Trazado 8667" d="M34.9,760.376a27.836,27.836,0,0,1,.15-3.13,4.591,4.591,0,0,1,4.359-3.784c1.674-.042,3.349-.023,5.024-.009a1.565,1.565,0,0,1-.026,3.131c-1.5.015-3,0-4.507.006a1.627,1.627,0,0,0-1.816,1.83c0,1.515.007,3.03-.008,4.545a1.519,1.519,0,0,1-1.11,1.451,1.479,1.479,0,0,1-1.7-.57,2.124,2.124,0,0,1-.312-.993c-.044-.823-.014-1.65-.014-2.475l-.042,0" transform="translate(100.203 2133.127)" fill="#fff"/>
    <path id="Trazado_8668" data-name="Trazado 8668" d="M217.449,760.377q0,1.127,0,2.254c0,1.123-.608,1.839-1.563,1.844s-1.579-.712-1.58-1.826q0-2.125,0-4.249a1.626,1.626,0,0,0-1.826-1.82c-1.515,0-3.029.007-4.544-.008a1.529,1.529,0,0,1-1.444-1.071,1.488,1.488,0,0,1,.5-1.691,1.79,1.79,0,0,1,.939-.354c1.711-.031,3.424-.051,5.134,0a4.666,4.666,0,0,1,4.368,4.37c.035.848.006,1.7.006,2.549h.012" transform="translate(-50.76 2133.137)" fill="#fff"/>
    <path id="Trazado_8669" data-name="Trazado 8669" d="M42.092,935.825A27.872,27.872,0,0,1,39,935.68a4.6,4.6,0,0,1-3.81-4.376c-.042-1.674-.023-3.35-.008-5.025a1.564,1.564,0,0,1,3.128.011c.018,1.5.006,3.005.008,4.508a1.634,1.634,0,0,0,1.84,1.843c1.515,0,3.029-.009,4.544.009a1.539,1.539,0,0,1,1.489,1.3,1.56,1.56,0,0,1-.939,1.708,2.1,2.1,0,0,1-.719.124c-.813.015-1.625.006-2.438.006,0,.014,0,.027,0,.041" transform="translate(99.973 1982.336)" fill="#fff"/>
    <path id="Trazado_8670" data-name="Trazado 8670" d="M217.52,928.854a28.022,28.022,0,0,1-.148,3.093,4.6,4.6,0,0,1-4.385,3.8c-1.662.04-3.325.022-4.987.008a1.565,1.565,0,0,1,0-3.131c1.5-.016,3,0,4.507-.006a1.628,1.628,0,0,0,1.831-1.815c0-1.527-.01-3.055.01-4.582a1.542,1.542,0,0,1,1.381-1.49,1.567,1.567,0,0,1,1.689,1.135,2.3,2.3,0,0,1,.06.584c.006.8,0,1.6,0,2.4l.041,0" transform="translate(-50.79 1982.359)" fill="#fff"/>
    <path id="Trazado_8671" data-name="Trazado 8671" d="M140.5,823.339c0-.777-.005-1.553,0-2.33a1.585,1.585,0,1,1,3.159.014c0,1.479,0,2.958,0,4.438a1.574,1.574,0,0,0,1.632,1.74,1.581,1.581,0,1,1-.2,3.155,4.749,4.749,0,0,1-4.59-4.724c-.012-.764,0-1.528,0-2.293" transform="translate(7.26 2075.148)" fill="#fff"/>
    <path id="Trazado_8672" data-name="Trazado 8672" d="M222.7,821.715c0,.271.009.542,0,.812a1.563,1.563,0,0,1-1.445,1.505,1.493,1.493,0,0,1-1.66-1.288,10.5,10.5,0,0,1,0-2.132,1.515,1.515,0,0,1,1.624-1.3,1.579,1.579,0,0,1,1.482,1.517c.012.295,0,.591,0,.886" transform="translate(-62.319 2075.146)" fill="#fff"/>
    <path id="Trazado_8673" data-name="Trazado 8673" d="M91.007,821.675a10.236,10.236,0,0,1-.062,1.067,1.532,1.532,0,0,1-1.667,1.289,1.556,1.556,0,0,1-1.445-1.5q-.026-.848,0-1.7a1.574,1.574,0,0,1,1.479-1.518,1.553,1.553,0,0,1,1.633,1.3,10.2,10.2,0,0,1,.062,1.066" transform="translate(53.624 2075.146)" fill="#fff"/>
  </g>
</svg>
