<svg id="Grupo_3916" data-name="Grupo 3916" xmlns="http://www.w3.org/2000/svg" xmlns:xlink="http://www.w3.org/1999/xlink" width="58.885" height="58.852" viewBox="0 0 58.885 58.852">
  <defs>
    <clipPath id="clip-path">
      <rect id="Rectángulo_1155" data-name="Rectángulo 1155" width="58.884" height="58.852" fill="#00c1d4" stroke="#00c1d4" stroke-width="0.5"/>
    </clipPath>
  </defs>
  <g id="Grupo_3915" data-name="Grupo 3915" clip-path="url(#clip-path)">
    <path id="Trazado_8571" data-name="Trazado 8571" d="M51.288,50.3c0,2.43,0,4.781,0,7.133,0,1.162-.257,1.415-1.435,1.415H9.029c-1.168,0-1.422-.254-1.422-1.427q0-3.2,0-6.41V50.3H6.932c-1.919,0-3.837,0-5.756,0-.819,0-1.163-.339-1.163-1.148,0-4.174-.034-8.349.013-12.523a4.537,4.537,0,0,1,3.008-4.361q3.9-1.654,7.823-3.25a.807.807,0,0,0,.571-.8,2.848,2.848,0,0,0-1.355-2.98A8.375,8.375,0,0,1,6.86,19.994c-2.245-.544-3.132-1.4-3.1-2.986.027-1.475.976-2.474,2.75-2.841-.4-.8-.751-1.606-1.18-2.369A5.985,5.985,0,0,1,8.774,3.02a5.132,5.132,0,0,0,1.456-.994A9.587,9.587,0,0,1,16.181,0a7.05,7.05,0,0,1,2.45.341A28.641,28.641,0,0,1,23.9,2.72c2.822,1.822,3.74,4.612,3.238,7.846H31.2a19.071,19.071,0,0,1,.026-2.933,5.688,5.688,0,0,1,3.358-4.309,15.615,15.615,0,0,0,2.225-1.305A9.814,9.814,0,0,1,42.765,0a7.1,7.1,0,0,1,2.45.34,32.083,32.083,0,0,1,5.228,2.333,7.487,7.487,0,0,1,2.9,9.121c-.308.789-.656,1.563-1,2.387a3.043,3.043,0,0,1,2.242,1.21,2.833,2.833,0,0,1,.524,1.9c-.1,1.484-1.1,2.379-3.06,2.675A8.459,8.459,0,0,1,50.3,23.729a21.709,21.709,0,0,1-2.421,2.246.84.84,0,0,0-.4.766,14.127,14.127,0,0,1,0,1.6.533.533,0,0,0,.406.6c2.557,1.051,5.1,2.127,7.657,3.185a4.805,4.805,0,0,1,3.34,4.985q0,5.935,0,11.87c0,1.016-.3,1.316-1.3,1.317-2.074,0-4.148,0-6.3,0M38.763,30.355a9.683,9.683,0,0,1-4.3,6.164.6.6,0,0,0-.257.4c-.026.729-.012,1.459-.012,2.191.189.059.339.109.49.151,4.374,1.22,8.754,2.423,13.121,3.667a4.53,4.53,0,0,1,3.387,3.739,14.829,14.829,0,0,1,.139,1.688h5.652v-.632q0-5.312,0-10.625a2.948,2.948,0,0,0-2.118-3.192c-2.805-1.173-5.606-2.358-8.421-3.508a1.211,1.211,0,0,1-.866-1.3q.047-1.572,0-3.145a1.393,1.393,0,0,1,.759-1.281,14.11,14.11,0,0,0,2.306-1.917,6.637,6.637,0,0,0,1.605-3.636c.127-.874.415-1.1,1.3-1.108.237,0,.476.012.712-.007a.943.943,0,0,0,.01-1.884c-.315-.024-.633,0-.949-.013a.9.9,0,0,1-.965-.971,7.772,7.772,0,0,1,.328-1.89c.238-.75.626-1.45.9-2.189a5.714,5.714,0,0,0-2.764-7.165c-1.056-.535-2.136-1.032-3.239-1.462a7.475,7.475,0,0,0-6.627.47c-1.387.773-2.58,1.826-4.071,2.492A3.431,3.431,0,0,0,33.02,9.073a3.037,3.037,0,0,0,2.252,3.038,2.955,2.955,0,0,1,.962.452,13.489,13.489,0,0,1,2.495,1.959,7.4,7.4,0,0,1,1.237,7.939c-.284.722-.605,1.429-.934,2.2.376,0,.653-.007.928,0a2.847,2.847,0,0,1,.03,5.691c-.393.015-.787,0-1.227,0M19.81,24.628C19.3,23.6,18.8,22.644,18.343,21.662a5.891,5.891,0,0,1,3.441-8.076,2.953,2.953,0,0,0,.689-.325q1.052-.719,2.075-1.48a1.163,1.163,0,0,0,.351-.453A5.736,5.736,0,0,0,22.233,3.89c-1.02-.518-2.069-.984-3.126-1.423a7.644,7.644,0,0,0-4.651-.383,10.328,10.328,0,0,0-4.078,2.21,3.22,3.22,0,0,1-.969.543A4.015,4.015,0,0,0,6.866,10.6c.47.98,1.034,1.92,1.426,2.929a4.686,4.686,0,0,1,.216,1.841.825.825,0,0,1-.877.732c-.335.018-.674-.01-1.008.015A.942.942,0,0,0,6.636,18c.256.02.514,0,.771.007.806.007,1.105.247,1.23,1.051A7.443,7.443,0,0,0,12.6,24.716a1.25,1.25,0,0,1,.714,1.246c-.023,1.008-.006,2.018-.007,3.027,0,.947-.1,1.1-.974,1.467Q8.147,32.2,3.963,33.936a2.908,2.908,0,0,0-2.052,3.058q0,5.4,0,10.8c0,.191.017.381.028.608H7.608c0-.307,0-.523,0-.74a4.764,4.764,0,0,1,3.653-4.8c2.51-.7,5.024-1.386,7.536-2.083,1.959-.543,3.915-1.094,5.9-1.651,0-.673-.022-1.325.009-1.975a.756.756,0,0,0-.419-.754,9.355,9.355,0,0,1-3.926-5.185c-.088-.277-.161-.558-.24-.837l-.083.172a13.554,13.554,0,0,1-2.621-.725,2.459,2.459,0,0,1-1.261-2.395c.029-1.722,1.218-2.656,3.652-2.805M49.346,56.922a1.422,1.422,0,0,0,.038-.21c0-3.107.016-6.213-.007-9.319a2.779,2.779,0,0,0-2.151-2.664c-4.412-1.235-8.828-2.453-13.238-3.695a.716.716,0,0,0-.818.237c-.909.938-1.84,1.853-2.765,2.775-.754.752-1.15.756-1.891.018-.925-.922-1.859-1.835-2.762-2.777a.762.762,0,0,0-.873-.241c-4.353,1.225-8.711,2.431-13.066,3.648a2.849,2.849,0,0,0-2.306,3.023q0,4.333,0,8.666v.529h5.725V49.386h1.888V56.9h24.7V49.4h1.875v7.527Zm-26.2-34.56c-1.268,2.144-1.3,2.241-1.3,4.61,0,.534,0,1.068,0,1.6a7.63,7.63,0,0,0,6.869,7.452,7.494,7.494,0,0,0,8.05-5.735,33.117,33.117,0,0,0,.277-4.54c.094-1.355-.851-2.264-1.267-3.425-4.264,3.126-8.437,3.1-12.637.035m-2.235.142c.2-.4.356-.7.506-1,.16-.318.31-.64.478-.953a.956.956,0,0,1,1.568-.377c.58.412,1.129.869,1.721,1.262a7.517,7.517,0,0,0,6,1.118,10.736,10.736,0,0,0,4.11-2.275c.81-.611,1.329-.481,1.788.427l.829,1.642a5.657,5.657,0,0,0-1.5-7.422,13.752,13.752,0,0,0-6.3-2.558,7.443,7.443,0,0,0-4.669,1.122,6.614,6.614,0,0,1,3.828,3.054l-1.542,1.026c-.229-.3-.412-.585-.635-.833a4.2,4.2,0,0,0-4.376-1.432,3.839,3.839,0,0,0-2.946,3.152c-.316,1.5.416,2.713,1.147,4.047m8.532,19.812c.926-.928,1.781-1.778,2.626-2.638a.689.689,0,0,0,.215-.393c.024-.566.01-1.134.01-1.765a9.8,9.8,0,0,1-5.7.011c0,.541-.013.994.006,1.447a1.012,1.012,0,0,0,.137.6c.869.914,1.768,1.8,2.7,2.737M19.921,28.443V26.575c-.618.015-1.3-.23-1.675.42a1.211,1.211,0,0,0,0,1.025c.372.652,1.056.41,1.676.424M38.984,26.6v1.83c1.3.1,1.855-.181,1.853-.919s-.56-1.021-1.853-.911" transform="translate(0 0)" fill="#00c1d4" stroke="#00c1d4" stroke-width="0.5"/>
  </g>
</svg>
