<svg xmlns="http://www.w3.org/2000/svg" width="82.935" height="71.087" viewBox="0 0 82.935 71.087">
  <g id="Grupo_4014" data-name="Grupo 4014" transform="translate(0 0)">
    <g id="Grupo_3855" data-name="Grupo 3855" transform="translate(0 0)">
      <path id="Trazado_713" data-name="Trazado 713" d="M37.257,62.088s6.695-2.11,6.695-10.872C43.952,41.633,37.289,37,24.8,37H0V77.321a4.725,4.725,0,0,0,4.739,4.7h7.11V67.807l14.239,0c5.769,0,9.455,2.054,9.455,7.107,0,4.82-3.687,7.109-9.455,7.109H11.848V91.5H27.72c10.3,0,20.145-3.775,20.145-16.585A12.453,12.453,0,0,0,37.257,62.088M22.114,58.33H11.848V46.482H22.114c5.931,0,9.378,1.4,9.378,5.83,0,4.821-3.447,6.019-9.378,6.019" transform="translate(0 -20.416)" fill="#fff"/>
      <path id="Trazado_714" data-name="Trazado 714" d="M121.033,74.006a4.755,4.755,0,0,0-4.74,4.739v33.173h11.848V74.006Z" transform="translate(-64.163 -40.832)" fill="#fff"/>
      <path id="Trazado_715" data-name="Trazado 715" d="M118.663,37a2.377,2.377,0,0,0-2.37,2.37v7.109h9.478a2.379,2.379,0,0,0,2.37-2.37V37Z" transform="translate(-64.163 -20.416)" fill="#3ab3c9"/>
      <path id="Trazado_716" data-name="Trazado 716" d="M161.681,0H147.463a4.754,4.754,0,0,0-4.738,4.739V16.587h14.217a4.754,4.754,0,0,0,4.739-4.738Z" transform="translate(-78.746)" fill="#ffb200"/>
    </g>
  </g>
</svg>
