<svg xmlns="http://www.w3.org/2000/svg" xmlns:xlink="http://www.w3.org/1999/xlink" width="58.617" height="59.036" viewBox="0 0 58.617 59.036">
  <defs>
    <clipPath id="clip-path">
      <rect id="Rectángulo_1167" data-name="Rectángulo 1167" width="58.617" height="59.036" fill="none"/>
    </clipPath>
  </defs>
  <g id="Grupo_3948" data-name="Grupo 3948" clip-path="url(#clip-path)">
    <path id="Trazado_8604" data-name="Trazado 8604" d="M4.983,0H53.641a.376.376,0,0,0,.1.06c3.306.8,4.877,2.8,4.878,6.214q0,4.467,0,8.934a7.387,7.387,0,0,1-.074,1.263,5.7,5.7,0,0,1-5.752,4.809c-.567.009-1.135,0-1.753,0v1.759q0,16.83,0,33.66a2.037,2.037,0,0,1-2.212,2.336q-19.51,0-39.021,0a2.857,2.857,0,0,1-.684-.065A2.033,2.033,0,0,1,7.59,56.7q0-17.291,0-34.583V21.28c-.665,0-1.239.011-1.812,0a5.69,5.69,0,0,1-5.766-5.84q-.024-4.957.011-9.913a5.453,5.453,0,0,1,1.8-3.98A6.534,6.534,0,0,1,4.983,0m6.636,12V48.149a3.437,3.437,0,0,0,.32.128,8.936,8.936,0,0,1,6.391,6.36c.123.408.353.373.64.373q10.346,0,20.692.009c.4,0,.545-.113.665-.5a8.9,8.9,0,0,1,6.093-6.156c.465-.149.623-.311.623-.806q-.022-17.464-.012-34.928V12ZM8.932,11.98c-.755,0-1.445.021-2.133-.006a1.345,1.345,0,0,1-1.323-1.332A1.331,1.331,0,0,1,6.8,9.318c.211-.012.423-.007.634-.007H51.41c1.11,0,1.729.472,1.737,1.317s-.641,1.353-1.769,1.354H49.7v5.252c1.183,0,2.335.067,3.475-.021a1.566,1.566,0,0,0,1.414-1.688q.021-4.871,0-9.741a1.658,1.658,0,0,0-1.786-1.755q-23.489,0-46.977,0a1.66,1.66,0,0,0-1.8,1.741q-.022,4.871,0,9.741a1.689,1.689,0,0,0,1.8,1.76c.922.018,1.844.006,2.767,0a1.822,1.822,0,0,0,.337-.069Zm2.7,39.065v3.964c1.229,0,2.415,0,3.6,0,.11,0,.219-.019.33-.029a5.821,5.821,0,0,0-3.931-3.934m35.352,3.937V51.048a5.822,5.822,0,0,0-3.932,3.935Z" transform="translate(0)" fill="#00c1d4"/>
    <path id="Trazado_8605" data-name="Trazado 8605" d="M120.945,88.052a12.351,12.351,0,1,1-12.372-12.325,12.37,12.37,0,0,1,12.372,12.325m-12.41,9.705a9.671,9.671,0,1,0-9.614-9.8,9.685,9.685,0,0,0,9.614,9.8" transform="translate(-79.027 -62.181)" fill="#00c1d4"/>
    <path id="Trazado_8606" data-name="Trazado 8606" d="M123.682,125.822l3.551.028a3.917,3.917,0,0,1,2.878-2.731,3.825,3.825,0,0,1,4.466,2.285c.145.352.275.559.717.551a.975.975,0,0,1,0,1.949.71.71,0,0,0-.743.529,3.715,3.715,0,0,1-3.41,2.337.971.971,0,0,1-1.152-.925c-.03-.607.344-.993,1.03-1.061a1.711,1.711,0,0,0,1.494-.873c-1.156-.009-2.257-.03-3.358-.008-.111,0-.25.247-.319.4a3.88,3.88,0,0,1-3.661,2.424,3.811,3.811,0,0,1-3.583-2.517.55.55,0,0,0-.577-.414.982.982,0,1,1,0-1.964c.4.009.5-.18.635-.487a3.764,3.764,0,0,1,3.45-2.374,1,1,0,1,1,.148,1.979,1.934,1.934,0,0,0-1.566.868m3,2.082-2.968-.024a1.732,1.732,0,0,0,2.968.024m2.843-2.063,3,.024a1.773,1.773,0,0,0-3-.024" transform="translate(-98.539 -100.975)" fill="#ffb81c"/>
  </g>
</svg>
