<svg id="Grupo_3931" data-name="Grupo 3931" xmlns="http://www.w3.org/2000/svg" xmlns:xlink="http://www.w3.org/1999/xlink" width="69.349" height="103.161" viewBox="0 0 69.349 103.161">
  <defs>
    <clipPath id="clip-path">
      <rect id="Rectángulo_1165" data-name="Rectángulo 1165" width="69.349" height="103.161" fill="#00c1d4"/>
    </clipPath>
  </defs>
  <g id="Grupo_3930" data-name="Grupo 3930" clip-path="url(#clip-path)">
    <path id="Trazado_8589" data-name="Trazado 8589" d="M61.072,0a24.828,24.828,0,0,1,4.372,1.907,8.832,8.832,0,0,1,3.893,7.665c.021,6.076.007,12.153.007,18.229q0,32.681,0,65.362c0,4.778-2.646,8.439-7.009,9.629a10.717,10.717,0,0,1-2.78.351q-24.88.031-49.76.01A9.468,9.468,0,0,1,.007,93.364q-.016-41.745,0-83.491A9.431,9.431,0,0,1,7.907.151,2.165,2.165,0,0,0,8.275,0ZM6.736,83.98H62.628V19.164H6.736Zm55.931,4.574h-56c0,1.487,0,2.895,0,4.3,0,2.642,1,3.636,3.648,3.636H59.055a9.3,9.3,0,0,0,1.006-.022,2.768,2.768,0,0,0,2.588-2.63c.071-1.738.017-3.481.017-5.286m.015-73.949c0-1.477,0-2.851,0-4.226,0-2.736-.967-3.715-3.67-3.716H10.355a9.742,9.742,0,0,0-1.107.026A2.685,2.685,0,0,0,6.737,9.054c-.116,1.827-.029,3.667-.029,5.551Z" transform="translate(0 0.001)" fill="#00c1d4"/>
    <path id="Trazado_8591" data-name="Trazado 8591" d="M111.491,303.667a2.192,2.192,0,0,1,2.171,2.263,2.213,2.213,0,0,1-4.426-.083,2.191,2.191,0,0,1,2.255-2.18" transform="translate(-76.776 -213.432)" fill="#00c1d4"/>
    <path id="Trazado_8592" data-name="Trazado 8592" d="M101.187,28.759c1.373,0,2.747-.023,4.12.006a2.224,2.224,0,1,1,.049,4.434q-4.17.058-8.341,0a2.212,2.212,0,0,1-2.38-2.193,2.235,2.235,0,0,1,2.431-2.241c1.373-.029,2.747-.006,4.12-.006" transform="translate(-66.514 -20.207)" fill="#00c1d4"/>
  </g>
</svg>
