<svg id="Grupo_3912" data-name="Grupo 3912" xmlns="http://www.w3.org/2000/svg" xmlns:xlink="http://www.w3.org/1999/xlink" width="72.324" height="62.553" viewBox="0 0 72.324 62.553">
  <defs>
    <clipPath id="clip-path">
      <rect id="Rectángulo_1153" data-name="Rectángulo 1153" width="72.324" height="62.553" fill="#00c1d4"/>
    </clipPath>
  </defs>
  <g id="Grupo_3911" data-name="Grupo 3911" clip-path="url(#clip-path)">
    <path id="Trazado_8558" data-name="Trazado 8558" d="M9.684,181.291a1.337,1.337,0,0,0-.035.258c.146,1.73-.383,2.166-2.132,2.112-1.981-.061-3.966-.011-5.95-.015C.424,183.643,0,183.237,0,182.12q0-12.978,0-25.956c0-1.079.425-1.495,1.514-1.5q3.2-.008,6.4,0c1.376,0,1.713.342,1.725,1.743,0,.2,0,.392,0,.636.3.013.543.034.787.034,2.36,0,4.725.1,7.079-.024a14.994,14.994,0,0,1,8.184,2.115,73.385,73.385,0,0,1,11.675,8.364,4,4,0,0,0,1.355.742c3.423,1.061,6.872,2.04,10.279,3.149a10.619,10.619,0,0,1,2.74,1.494,2.955,2.955,0,0,1,1.3,2.81c-.018.194,0,.391,0,.672H53.9q7.23,0,14.461,0a3.645,3.645,0,0,1,3.963,4q0,.83,0,1.66a3.647,3.647,0,0,1-3.963,4q-6.025.005-12.051,0c-4.594,0-9.19-.073-13.783.025a42.289,42.289,0,0,1-9.4-.96q-9.765-1.989-19.566-3.8a22,22,0,0,0-3.876-.033m-.009-2.374a24.563,24.563,0,0,1,4.265.036c6.414,1.166,12.813,2.421,19.2,3.718a45.028,45.028,0,0,0,9.471,1c8.461-.086,16.923-.029,25.385-.029.226,0,.453.01.678,0a1.2,1.2,0,0,0,1.229-1.25c.026-.7.014-1.409.006-2.113-.011-1.029-.439-1.46-1.477-1.461-5,0-9.994,0-14.99-.011a.84.84,0,0,0-.866.514,3.416,3.416,0,0,1-3.86,1.783c-2.387-.47-4.758-1.044-7.162-1.39a21.34,21.34,0,0,1-8.9-3.4c-1.315-.872-2.739-1.577-4.107-2.369-.787-.455-1.023-1.1-.669-1.743.368-.673,1.049-.8,1.882-.34.286.157.569.319.853.481q3.333,1.906,6.667,3.809a3.149,3.149,0,0,0,.892.377q5.492,1.119,10.989,2.205a1.138,1.138,0,0,0,1.451-1.1,10.453,10.453,0,0,1,.023-1.2c.248-1.227-.44-1.873-1.391-2.369a4.842,4.842,0,0,0-.834-.334c-2.735-.827-5.453-1.724-8.217-2.443a11.661,11.661,0,0,1-5.864-3.133,8.393,8.393,0,0,0-.928-.769,57.3,57.3,0,0,0-9.867-6.613,11.189,11.189,0,0,0-5.5-1.3c-2.508.087-5.021.021-7.532.021H9.675Zm-2.493,2.277V157.08H2.449v24.115Z" transform="translate(0 -123.541)" fill="#00c1d4"/>
    <path id="Trazado_8559" data-name="Trazado 8559" d="M193.322,53.357a7.292,7.292,0,0,1,.886-1.268Q204.236,42.015,214.3,31.974c1.841-1.841,3.672-3.691,5.529-5.516a1.792,1.792,0,0,1,2.589-.067,1.822,1.822,0,0,1-.056,2.595c-.177.195-.369.376-.555.562L203.442,47.916c-2.275,2.275-4.528,4.573-6.847,6.8a2.9,2.9,0,0,1-1.674.735c-.908.067-1.6-.794-1.6-2.1" transform="translate(-154.42 -20.665)" fill="#ffb81c"/>
    <path id="Trazado_8560" data-name="Trazado 8560" d="M192.676,7.612a7.634,7.634,0,1,1,7.631,7.662,7.6,7.6,0,0,1-7.631-7.662m11.645-.018a4.031,4.031,0,0,0-4.006-4.02,4.1,4.1,0,0,0-4.064,4.079,4.037,4.037,0,0,0,4.035,3.994,3.973,3.973,0,0,0,4.036-4.053" transform="translate(-153.904 -0.001)" fill="#ffb81c"/>
    <path id="Trazado_8561" data-name="Trazado 8561" d="M280.513,130.831a7.634,7.634,0,1,1-7.575-7.695,7.608,7.608,0,0,1,7.575,7.695m-7.667-4.074a4.034,4.034,0,0,0,.084,8.068,4.034,4.034,0,1,0-.084-8.068" transform="translate(-211.871 -98.358)" fill="#ffb81c"/>
  </g>
</svg>
