<svg id="Grupo_3927" data-name="Grupo 3927" xmlns="http://www.w3.org/2000/svg" xmlns:xlink="http://www.w3.org/1999/xlink" width="111.177" height="103.162" viewBox="0 0 111.177 103.162">
  <defs>
    <clipPath id="clip-path">
      <rect id="Rectángulo_1163" data-name="Rectángulo 1163" width="111.177" height="103.162" fill="#00c1d4"/>
    </clipPath>
  </defs>
  <g id="Grupo_3926" data-name="Grupo 3926" clip-path="url(#clip-path)">
    <path id="Trazado_8583" data-name="Trazado 8583" d="M108.478,99.109c-1.259.142-1.808,1.011-2.192,2.112a5.816,5.816,0,0,1-2.748,3.3c-.081-.068-.119-.084-.126-.11-.068-.316-.139-.636-.191-.956a28.364,28.364,0,0,0-5.528-12.693c-5.076-6.707-11.8-11.095-19.506-14.094a63.645,63.645,0,0,0-12.028-3.145,2.058,2.058,0,0,1-.223-.026,60.346,60.346,0,0,0-14.931-.442c-1.582.139-3.158.371-4.73.617a1.892,1.892,0,0,1-.549.019,49.465,49.465,0,0,0-9.819,2.7c-.274.113-.417.178-.417.178-1.521.646-3.026,1.279-4.54,1.886a1.481,1.481,0,0,1-1.072-.21A15.182,15.182,0,0,0,22.407,76.3c-3.222.01-6.442.016-9.664,0a3.631,3.631,0,0,0-2.619,6.348Q12.449,85,14.806,87.33c.659.649,1.359,1.259,2.044,1.889a32.323,32.323,0,0,0-5.986,10.772,1.208,1.208,0,0,1-.93.581c-1.989.055-3.981.023-5.97.029-2.538.013-3.952,1.43-3.959,3.978-.01,3.545,0,7.094,0,10.639a11.775,11.775,0,0,0,6.18,10.956c4.8,2.728,9.709,5.276,14.6,7.843a1.406,1.406,0,0,1,.907,1.476c-.032,4.269-.019,8.541-.013,12.809,0,2.748,1.376,4.117,4.143,4.136,1.773.013,3.549.006,5.321,0,2.351-.006,4.7.039,7.055-.045a3.408,3.408,0,0,0,3.329-2.622c.165-.552.265-1.127.381-1.692.442-2.144.878-4.291,1.334-6.522a64.159,64.159,0,0,0,24.672.4c.549,2.38,1.075,4.659,1.6,6.939.6,2.6,1.753,3.536,4.4,3.542q5.594.015,11.185,0c2.925-.006,4.3-1.4,4.3-4.337,0-4.595.023-9.193-.019-13.788a2.2,2.2,0,0,1,.959-1.979c7.136-5.58,12.031-12.528,13.129-21.77a1.574,1.574,0,0,1,.862-1,11.454,11.454,0,0,0,6.526-6.729c.087-.232.207-.449.313-.672v-1.3a2.581,2.581,0,0,0-2.7-1.747M90.841,121.851A52.063,52.063,0,0,1,84.08,127.9a4.61,4.61,0,0,0-1.97,3.862c.032,4.411.013,8.822.013,13.352H76.1c-.614-2.628-1.224-5.221-1.828-7.817s-2.293-3.652-4.908-3.038a58.826,58.826,0,0,1-27.711-.459c-2.606-.633-4.369.52-4.911,3.174-.549,2.686-1.082,5.379-1.631,8.124H28.9V143.95c0-3.726-.052-7.456.023-11.179a4.117,4.117,0,0,0-2.767-4.3A128.78,128.78,0,0,1,10.2,120.188a5.532,5.532,0,0,1-2.974-5.25c.055-2.338.013-4.682.013-7.126,2.076,0,4.023.006,5.967,0,2.305-.006,3.584-.988,4.027-3.261a23.12,23.12,0,0,1,4.637-9.99c.216.139.42.262.614.394a3.629,3.629,0,0,0,4.9-.526,3.588,3.588,0,0,0-.174-4.921C25.5,87.74,23.734,86.022,22,84.279c-.174-.174-.336-.362-.523-.562,2.619-.733,5.974.936,7.7,3.665a6.05,6.05,0,0,0,1.915,1.963,3.154,3.154,0,0,0,3.746-.426,3.4,3.4,0,0,0,1.25-3.675c-.077-.313-.178-.62-.349-1.2,2.841-.872,5.615-1.924,8.482-2.567,11.818-2.654,23.349-1.808,34.437,3.281A34.159,34.159,0,0,1,91.19,94.214c6.984,8.605,6.926,19.277-.349,27.637" transform="translate(0 -49.287)" fill="#00c1d4"/>
    <path id="Trazado_8584" data-name="Trazado 8584" d="M71.352,156.261c0,.615.033,1.231-.007,1.844a2.39,2.39,0,0,1-4.77.039,37.314,37.314,0,0,1,0-3.9,2.392,2.392,0,0,1,4.781.069c.035.649.006,1.3.006,1.953h-.005" transform="translate(-45.042 -102.89)" fill="#00c1d4"/>
    <path id="Trazado_8585" data-name="Trazado 8585" d="M142.707,23.274a12.016,12.016,0,0,0-12.422-15.98c-5.954.533-10.494,5.431-11.033,11.7q.552,2.354,1.1,4.711c.107.452.333.649.665.7a49.463,49.463,0,0,0-9.819,2.7l2.289-.972a19.09,19.09,0,0,1,.1-14.01,18.932,18.932,0,0,1,7.1-8.828A19.2,19.2,0,0,1,142.055,3.2a18.938,18.938,0,0,1,7.662,10.09,19.264,19.264,0,0,1-.258,12.657c1.108.384,2.157.727,3.19,1.114q.416.155.833.32a63.645,63.645,0,0,0-12.028-3.145c.691.055,1.011-.236,1.253-.962" transform="translate(-75.295 0)" fill="#ffb81c"/>
  </g>
</svg>
