<svg xmlns="http://www.w3.org/2000/svg" width="380.5" height="314.056" viewBox="0 0 380.5 314.056">
  <g id="Grupo_4022" data-name="Grupo 4022" transform="translate(1.5 -1466.444)">
    <path id="Trazado_8142" data-name="Trazado 8142" d="M167.128,37a51,51,0,0,0-50.835,50.834v152.5H319.622A51.031,51.031,0,0,0,370.475,189.5V37Z" transform="translate(-116.293 1538.659)" fill="none" stroke="#3ab3ca" stroke-width="3" opacity="0.998"/>
    <path id="Trazado_8143" data-name="Trazado 8143" d="M225.938,0,163.524,0a20.87,20.87,0,0,0-20.8,20.8V72.812h62.409a20.868,20.868,0,0,0,20.8-20.8Z" transform="translate(69.852 1539.257)" fill="#003865" opacity="0.998"/>
    <path id="Trazado_8144" data-name="Trazado 8144" d="M142.725,72.81l62.413,0a20.87,20.87,0,0,0,20.8-20.8V0H163.528a20.868,20.868,0,0,0-20.8,20.8Z" transform="translate(153.063 1466.444)" fill="#fdd26e" opacity="0.998"/>
  </g>
</svg>
