<svg xmlns="http://www.w3.org/2000/svg" width="221" height="191" viewBox="0 0 221 191">
  <g id="Grupo_4023" data-name="Grupo 4023" transform="translate(22 -2536)">
    <g id="Rect치ngulo_1140" data-name="Rect치ngulo 1140" transform="translate(-22 2536)" fill="none" stroke="#fff" stroke-width="2">
      <path d="M0,0H131a40,40,0,0,1,40,40V148a0,0,0,0,1,0,0H40A40,40,0,0,1,0,108V0A0,0,0,0,1,0,0Z" stroke="none"/>
      <path d="M2,1H131a39,39,0,0,1,39,39V146a1,1,0,0,1-1,1H40A39,39,0,0,1,1,108V2A1,1,0,0,1,2,1Z" fill="none"/>
    </g>
    <path id="Rect치ngulo_1175" data-name="Rect치ngulo 1175" d="M0,0H69A30,30,0,0,1,99,30V86a0,0,0,0,1,0,0H30A30,30,0,0,1,0,56V0A0,0,0,0,1,0,0Z" transform="translate(100 2641)" fill="#fff"/>
  </g>
</svg>
