<svg xmlns="http://www.w3.org/2000/svg" width="40.056" height="25.272" viewBox="0 0 31.056 28.272">
  <g id="Grupo_4008" data-name="Grupo 4008" transform="translate(-227.849 -2884.634)">
    <path id="Trazado_8674" data-name="Trazado 8674" d="M533.149,889.314a1.169,1.169,0,0,1-1.221.676q-14.369-.018-28.738-.008c-.594,0-.947-.229-1.062-.7a1.528,1.528,0,0,1-.031-.36c0-2.486-.009-4.972,0-7.457a7.134,7.134,0,0,1,7.23-7.185c1.91-.005,3.82-.017,5.729,0a7.025,7.025,0,0,1,5.912,3.009.5.5,0,0,0,.524.237c.351-.035.706-.031,1.059-.032,1.97,0,3.941-.016,5.911,0a4.458,4.458,0,0,1,4.274,2.7,9.143,9.143,0,0,1,.411,1.352Zm-29.233-1.172h13.291v-.379q0-2.773,0-5.547a4.429,4.429,0,0,1,.875-2.809,16.831,16.831,0,0,1,1.239-1.29c-.008-.011-.047-.069-.092-.122a5.281,5.281,0,0,0-4.189-1.895q-2.834-.008-5.668,0a5.3,5.3,0,0,0-5.457,5.452q0,3.137,0,6.274Zm27.4.005c0-.062.011-.11.011-.158,0-1.971,0-3.942,0-5.912a2.679,2.679,0,0,0-.1-.716,2.722,2.722,0,0,0-2.773-2.042q-3.274-.01-6.549,0a3.043,3.043,0,0,0-.778.094,2.728,2.728,0,0,0-2.1,2.795c-.005,1.89,0,3.78,0,5.669,0,.087.011.175.017.269Z" transform="translate(-274.244 2022.915)" fill="#fff"/>
    <path id="Trazado_8675" data-name="Trazado 8675" d="M558.649,749.482a5.776,5.776,0,1,1-5.769-5.772,5.783,5.783,0,0,1,5.769,5.772m-5.771,3.948a3.95,3.95,0,1,0-3.961-3.943,3.96,3.96,0,0,0,3.961,3.943" transform="translate(-314.922 2140.924)" fill="#fff"/>
    <path id="Trazado_8676" data-name="Trazado 8676" d="M703.174,803.044a4.642,4.642,0,1,1-4.661-4.623,4.656,4.656,0,0,1,4.661,4.623m-4.642-2.8a2.822,2.822,0,1,0,2.821,2.808,2.837,2.837,0,0,0-2.821-2.808" transform="translate(-447.598 2091.474)" fill="#fff"/>
  </g>
</svg>
