<svg id="Grupo_3914" data-name="Grupo 3914" xmlns="http://www.w3.org/2000/svg" xmlns:xlink="http://www.w3.org/1999/xlink" width="58.885" height="58.866" viewBox="0 0 58.885 58.866">
  <defs>
    <clipPath id="clip-path">
      <rect id="Rectángulo_1154" data-name="Rectángulo 1154" width="58.885" height="58.866" fill="#00c1d4"/>
    </clipPath>
  </defs>
  <g id="Grupo_3913" data-name="Grupo 3913" clip-path="url(#clip-path)">
    <path id="Trazado_8562" data-name="Trazado 8562" d="M58.885,27.592v3.679c-.033.148-.074.295-.1.445-.2,1.362-.326,2.739-.6,4.084a29.437,29.437,0,0,1-23.6,22.612c-1.092.177-2.192.3-3.288.454H27.616c-.166-.034-.331-.075-.5-.1-1.4-.209-2.818-.328-4.2-.634A29.442,29.442,0,1,1,58.438,24.358c.18,1.073.3,2.156.446,3.235M29.445,55.416A25.984,25.984,0,1,0,3.476,29.407,26.027,26.027,0,0,0,29.445,55.416" transform="translate(0 0)" fill="#00c1d4"/>
    <path id="Trazado_8563" data-name="Trazado 8563" d="M44.314,120.863a22.721,22.721,0,0,1,3.333-11.781,1.741,1.741,0,1,1,2.945,1.8A19.087,19.087,0,0,0,77.354,136.81a3.448,3.448,0,0,1,1.013-.513,1.665,1.665,0,0,1,1.931.979,1.7,1.7,0,0,1-.638,2.127,21.565,21.565,0,0,1-5.732,2.854A22.478,22.478,0,0,1,44.954,126.1c-.411-1.7-.529-3.471-.783-5.209l.143-.024" transform="translate(-37.388 -91.443)" fill="#00c1d4"/>
    <path id="Trazado_8564" data-name="Trazado 8564" d="M180.541,107.359q0-2.988,0-5.975a1.732,1.732,0,1,1,3.446-.009c0,3.562.009,7.125-.009,10.687a.835.835,0,0,0,.482.852c2.959,1.685,5.9,3.4,8.854,5.094a1.829,1.829,0,0,1,1.026,1.3,1.637,1.637,0,0,1-.679,1.715,1.657,1.657,0,0,1-1.893.075c-1.578-.9-3.149-1.815-4.722-2.724-1.805-1.043-3.6-2.1-5.42-3.122a1.981,1.981,0,0,1-1.095-1.919c.025-1.991.008-3.983.008-5.975" transform="translate(-152.81 -84.193)" fill="#ffb81c"/>
    <path id="Trazado_8565" data-name="Trazado 8565" d="M184.05,46.672a1.72,1.72,0,1,1-1.737-1.692,1.742,1.742,0,0,1,1.737,1.692" transform="translate(-152.875 -38.073)" fill="#00c1d4"/>
    <path id="Trazado_8566" data-name="Trazado 8566" d="M316.077,182.13a1.719,1.719,0,1,1,1.657,1.764,1.721,1.721,0,0,1-1.657-1.764" transform="translate(-267.538 -152.743)" fill="#00c1d4"/>
    <path id="Trazado_8567" data-name="Trazado 8567" d="M297.979,114.513a1.681,1.681,0,0,1,1.713-1.7,1.71,1.71,0,1,1-.008,3.42,1.694,1.694,0,0,1-1.7-1.716" transform="translate(-252.22 -95.485)" fill="#00c1d4"/>
    <path id="Trazado_8568" data-name="Trazado 8568" d="M299.682,251.652a1.711,1.711,0,0,1,.02-3.421,1.711,1.711,0,1,1-.02,3.421" transform="translate(-252.224 -210.111)" fill="#00c1d4"/>
    <path id="Trazado_8569" data-name="Trazado 8569" d="M114.678,66.545a1.683,1.683,0,0,1-1.71-1.707,1.71,1.71,0,1,1,3.42,0,1.694,1.694,0,0,1-1.71,1.711" transform="translate(-95.62 -53.42)" fill="#00c1d4"/>
    <path id="Trazado_8570" data-name="Trazado 8570" d="M251.8,64.835a1.71,1.71,0,0,1-3.421.01,1.711,1.711,0,1,1,3.421-.01" transform="translate(-210.233 -53.424)" fill="#00c1d4"/>
  </g>
</svg>
